<?xml version="1.0" encoding="utf-8"?>
<svg viewBox="0 0 2297 500" width="2750px" height="500px" xmlns="http://www.w3.org/2000/svg">
  <path d="M 101.309 212.703 C 69.346 212.703 44.942 203.816 28.109 186.035 C 11.463 168.25 3.138 142.994 3.138 110.28 C 3.138 94.009 5.689 79.539 10.794 66.862 C 15.907 54.005 22.907 43.221 31.796 34.514 C 40.684 25.621 51.283 18.904 63.573 14.363 C 75.867 9.826 89.204 7.557 103.582 7.557 C 111.903 7.557 119.471 8.221 126.281 9.542 C 133.1 10.675 139.051 12.095 144.158 13.8 C 149.268 15.311 153.526 16.915 156.928 18.625 C 160.335 20.332 162.794 21.648 164.305 22.595 L 151.541 58.347 C 145.484 55.138 138.39 52.391 130.259 50.123 C 122.316 47.846 113.228 46.717 103.014 46.717 C 96.209 46.717 89.492 47.846 82.869 50.123 C 76.444 52.391 70.671 56.078 65.567 61.191 C 60.645 66.105 56.674 72.539 53.648 80.483 C 50.627 88.431 49.102 98.072 49.102 109.419 C 49.102 118.503 50.055 127.013 51.948 134.953 C 54.019 142.72 57.241 149.433 61.588 155.109 C 66.124 160.775 72 165.322 79.178 168.729 C 86.373 171.941 95.071 173.55 105.284 173.55 C 111.717 173.55 117.491 173.174 122.594 172.406 C 127.707 171.663 132.244 170.806 136.215 169.858 C 140.184 168.729 143.689 167.497 146.711 166.167 C 149.741 164.847 152.48 163.616 154.943 162.486 L 167.14 197.954 C 160.898 201.733 152.108 205.14 140.756 208.163 C 129.409 211.192 116.263 212.703 101.309 212.703 Z M 253.239 9.826 C 282.748 9.826 305.358 15.12 321.06 25.723 C 336.759 36.122 344.614 52.391 344.614 74.523 C 344.614 88.329 341.393 99.592 334.964 108.285 C 328.722 116.796 319.638 123.518 307.724 128.437 C 311.694 133.35 315.854 139.025 320.205 145.459 C 324.556 151.698 328.809 158.321 332.979 165.322 C 337.326 172.131 341.49 179.318 345.465 186.89 C 349.435 194.263 353.12 201.547 356.528 208.733 L 306.873 208.733 C 303.28 202.3 299.589 195.784 295.805 189.155 C 292.208 182.535 288.428 176.097 284.454 169.858 C 280.67 163.616 276.891 157.754 273.108 152.268 C 269.324 146.588 265.544 141.489 261.756 136.948 L 239.907 136.948 L 239.907 208.733 L 195.64 208.733 L 195.64 14.935 C 205.291 13.038 215.216 11.718 225.432 10.964 C 235.841 10.202 245.105 9.826 253.239 9.826 Z M 255.791 47.566 C 252.574 47.566 249.655 47.66 247.001 47.846 C 244.537 48.041 242.181 48.223 239.907 48.417 L 239.907 101.763 L 252.389 101.763 C 269.041 101.763 280.954 99.681 288.141 95.525 C 295.327 91.36 298.919 84.262 298.919 74.235 C 298.919 64.584 295.234 57.784 287.852 53.81 C 280.67 49.644 269.979 47.566 255.791 47.566 Z M 447.554 92.968 C 455.494 79.539 463.062 66.105 470.243 52.671 C 477.436 39.246 484.069 25.723 490.117 12.095 L 538.91 12.095 C 528.135 33.286 516.98 53.81 505.428 73.668 C 493.891 93.535 481.698 113.492 468.831 133.536 L 468.831 208.733 L 424.568 208.733 L 424.568 134.107 C 411.701 114.054 399.406 94.009 387.682 73.956 C 376.135 53.897 364.979 33.286 354.2 12.095 L 405.551 12.095 C 411.604 25.723 418.135 39.246 425.135 52.671 C 432.131 66.105 439.601 79.539 447.554 92.968 Z M 622.091 9.826 C 651.409 9.826 673.926 15.027 689.624 25.434 C 705.321 35.653 713.168 52.485 713.168 75.945 C 713.168 99.592 705.233 116.698 689.336 127.297 C 673.447 137.705 650.749 142.906 621.24 142.906 L 607.342 142.906 L 607.342 208.733 L 563.065 208.733 L 563.065 14.935 C 572.724 13.038 582.937 11.718 593.716 10.964 C 604.496 10.202 613.956 9.826 622.091 9.826 Z M 624.926 47.566 C 621.719 47.566 618.492 47.66 615.285 47.846 C 612.255 48.041 609.605 48.223 607.342 48.417 L 607.342 105.165 L 621.24 105.165 C 636.562 105.165 648.103 103.088 655.858 98.928 C 663.606 94.758 667.492 87.004 667.492 75.657 C 667.492 70.167 666.456 65.631 664.369 62.038 C 662.481 58.448 659.636 55.613 655.858 53.521 C 652.259 51.252 647.82 49.746 642.526 48.989 C 637.221 48.041 631.369 47.566 624.926 47.566 Z M 895.114 12.095 L 895.114 49.835 L 835.814 49.835 L 835.814 208.733 L 791.546 208.733 L 791.546 49.835 L 732.255 49.835 L 732.255 12.095 L 895.114 12.095 Z M 954.089 110.28 C 954.089 119.924 955.228 128.627 957.492 136.38 C 959.955 144.139 963.363 150.856 967.704 156.527 C 972.246 162.012 977.74 166.266 984.164 169.291 C 990.603 172.322 997.975 173.828 1006.296 173.828 C 1014.435 173.828 1021.719 172.322 1028.148 169.291 C 1034.777 166.266 1040.257 162.012 1044.604 156.527 C 1049.146 150.856 1052.543 144.139 1054.82 136.38 C 1057.28 128.627 1058.508 119.924 1058.508 110.28 C 1058.508 100.624 1057.28 91.927 1054.82 84.165 C 1052.543 76.22 1049.146 69.508 1044.604 64.022 C 1040.257 58.347 1034.777 54.005 1028.148 50.969 C 1021.719 47.948 1014.435 46.427 1006.296 46.427 C 997.975 46.427 990.603 48.041 984.164 51.252 C 977.74 54.279 972.246 58.644 967.704 64.31 C 963.363 69.795 959.955 76.508 957.492 84.456 C 955.228 92.21 954.089 100.81 954.089 110.28 Z M 1104.183 110.28 C 1104.183 127.112 1101.636 141.959 1096.518 154.825 C 1091.614 167.497 1084.799 178.184 1076.103 186.89 C 1067.405 195.397 1056.997 201.835 1044.883 206.182 C 1032.968 210.532 1020.106 212.703 1006.296 212.703 C 992.866 212.703 980.194 210.532 968.272 206.182 C 956.362 201.835 945.963 195.397 937.062 186.89 C 928.17 178.184 921.173 167.497 916.069 154.825 C 910.951 141.959 908.399 127.112 908.399 110.28 C 908.399 93.437 911.063 78.684 916.357 66.007 C 921.657 53.145 928.741 42.36 937.629 33.662 C 946.711 24.966 957.116 18.429 968.843 14.093 C 980.756 9.733 993.238 7.557 1006.296 7.557 C 1019.735 7.557 1032.397 9.733 1044.316 14.093 C 1056.235 18.429 1066.636 24.966 1075.53 33.662 C 1084.427 42.36 1091.419 53.145 1096.518 66.007 C 1101.636 78.684 1104.183 93.437 1104.183 110.28 Z M 1230.756 212.703 C 1198.788 212.703 1174.384 203.816 1157.543 186.035 C 1140.911 168.25 1132.581 142.994 1132.581 110.28 C 1132.581 94.009 1135.134 79.539 1140.237 66.862 C 1145.341 54.005 1152.356 43.221 1161.229 34.514 C 1170.136 25.621 1180.72 18.904 1193.01 14.363 C 1205.324 9.826 1218.656 7.557 1233.02 7.557 C 1241.355 7.557 1248.913 8.221 1255.718 9.542 C 1262.533 10.675 1268.493 12.095 1273.597 13.8 C 1278.7 15.311 1282.963 16.915 1286.362 18.625 C 1289.763 20.332 1292.237 21.648 1293.743 22.595 L 1280.978 58.347 C 1274.925 55.138 1267.837 52.391 1259.688 50.123 C 1251.749 47.846 1242.666 46.717 1232.449 46.717 C 1225.642 46.717 1218.936 47.846 1212.302 50.123 C 1205.886 52.391 1200.114 56.078 1194.991 61.191 C 1190.077 66.105 1186.112 72.539 1183.081 80.483 C 1180.06 88.431 1178.545 98.072 1178.545 109.419 C 1178.545 118.503 1179.502 127.013 1181.384 134.953 C 1183.467 142.72 1186.68 149.433 1191.026 155.109 C 1195.564 160.775 1201.439 165.322 1208.615 168.729 C 1215.816 171.941 1224.514 173.55 1234.726 173.55 C 1241.165 173.55 1246.929 173.174 1252.027 172.406 C 1257.137 171.663 1261.678 170.806 1265.657 169.858 C 1269.628 168.729 1273.141 167.497 1276.153 166.167 C 1279.185 164.847 1281.932 163.616 1284.377 162.486 L 1296.579 197.954 C 1290.33 201.733 1281.54 205.14 1270.19 208.163 C 1258.838 211.192 1245.702 212.703 1230.756 212.703 Z M 1443.688 12.095 L 1487.951 12.095 L 1487.951 208.733 L 1443.688 208.733 L 1443.688 125.313 L 1369.351 125.313 L 1369.351 208.733 L 1325.083 208.733 L 1325.083 12.095 L 1369.351 12.095 L 1369.351 87.288 L 1443.688 87.288 L 1443.688 12.095 Z M 1665.113 208.733 C 1663.041 201.918 1660.674 194.927 1658.016 187.742 C 1655.575 180.541 1653.106 173.359 1650.643 166.167 L 1574.037 166.167 C 1571.582 173.359 1569.03 180.541 1566.366 187.742 C 1563.926 194.927 1561.643 201.918 1559.562 208.733 L 1513.601 208.733 C 1520.97 187.546 1527.97 167.966 1534.589 150.009 C 1541.218 132.034 1547.642 115.095 1553.89 99.207 C 1560.319 83.313 1566.562 68.28 1572.609 54.088 C 1578.853 39.715 1585.295 25.723 1591.905 12.095 L 1634.192 12.095 C 1640.621 25.723 1646.952 39.715 1653.195 54.088 C 1659.433 68.28 1665.672 83.313 1671.924 99.207 C 1678.362 115.095 1684.888 132.034 1691.495 150.009 C 1698.136 167.966 1705.123 187.546 1712.5 208.733 L 1665.113 208.733 Z M 1612.056 56.655 C 1611.113 59.485 1609.699 63.358 1607.794 68.28 C 1605.92 73.199 1603.739 78.864 1601.276 85.307 C 1598.821 91.746 1596.08 98.83 1593.048 106.58 C 1590.208 114.337 1587.274 122.477 1584.245 130.983 L 1640.142 130.983 C 1637.126 122.477 1634.192 114.337 1631.347 106.58 C 1628.512 98.83 1625.774 91.746 1623.12 85.307 C 1620.665 78.864 1618.486 73.199 1616.593 68.28 C 1614.711 63.358 1613.195 59.485 1612.056 56.655 Z M 1869.902 208.733 C 1857.225 186.226 1843.513 163.992 1828.759 142.051 C 1813.999 120.116 1798.297 99.401 1781.656 79.915 L 1781.656 208.733 L 1737.959 208.733 L 1737.959 12.095 L 1773.991 12.095 C 1780.237 18.333 1787.131 26.007 1794.708 35.081 C 1802.272 44.159 1809.927 53.897 1817.695 64.31 C 1825.64 74.523 1833.476 85.205 1841.244 96.371 C 1848.989 107.342 1856.277 117.935 1863.093 128.157 L 1863.093 12.095 L 1907.076 12.095 L 1907.076 208.733 L 1869.902 208.733 Z M 2048.338 46.153 C 2027.717 46.153 2012.768 51.923 2003.513 63.46 C 1994.434 74.802 1989.883 90.416 1989.883 110.28 C 1989.883 119.924 1991.023 128.72 1993.291 136.665 C 1995.565 144.409 1998.967 151.131 2003.513 156.805 C 2008.045 162.486 2013.722 166.935 2020.526 170.142 C 2027.346 173.174 2035.285 174.683 2044.364 174.683 C 2049.286 174.683 2053.442 174.59 2056.849 174.4 C 2060.437 174.213 2063.561 173.828 2066.217 173.266 L 2066.217 104.882 L 2110.475 104.882 L 2110.475 202.211 C 2105.179 204.289 2096.669 206.466 2084.94 208.733 C 2073.203 211.192 2058.732 212.42 2041.523 212.42 C 2026.779 212.42 2013.336 210.152 2001.235 205.614 C 1989.316 201.073 1979.104 194.454 1970.592 185.751 C 1962.081 177.045 1955.452 166.363 1950.729 153.687 C 1946.188 141.011 1943.92 126.544 1943.92 110.28 C 1943.92 93.824 1946.477 79.251 1951.575 66.574 C 1956.689 53.897 1963.672 43.221 1972.578 34.514 C 1981.465 25.621 1991.882 18.904 2003.787 14.363 C 2015.882 9.826 2028.768 7.557 2042.378 7.557 C 2051.638 7.557 2059.978 8.221 2067.345 9.542 C 2074.909 10.675 2081.342 12.095 2086.646 13.8 C 2092.127 15.311 2096.575 16.915 2099.982 18.625 C 2103.576 20.332 2106.123 21.648 2107.639 22.595 L 2094.874 58.063 C 2088.808 54.85 2081.825 52.103 2073.877 49.835 C 2066.119 47.376 2057.598 46.153 2048.338 46.153 Z M 2151.664 208.733 L 2151.664 12.095 L 2284.452 12.095 L 2284.452 49.268 L 2195.922 49.268 L 2195.922 87.85 L 2274.523 87.85 L 2274.523 124.188 L 2195.922 124.188 L 2195.922 171.559 L 2290.978 171.559 L 2290.978 208.733 L 2151.664 208.733 Z" fill="white" style="opacity: 0.9;"/>
  <path d="M 60.765 369.446 L 60.765 476.997 L 32.13 476.997 L 32.13 369.446 L 60.765 369.446 Z M 223.573 476.997 L 187.514 476.997 L 160.275 396.058 L 160.74 399.307 C 161.776 406.428 162.548 413.14 163.06 419.425 C 163.683 425.622 163.994 432.693 163.994 440.628 L 163.994 476.997 L 138.604 476.997 L 138.604 369.446 L 173.9 369.446 L 202.07 450.691 C 200.828 442.955 199.842 435.983 199.122 429.792 C 198.509 423.608 198.192 416.488 198.192 408.437 L 198.192 369.446 L 223.573 369.446 L 223.573 476.997 Z M 338.604 366.647 C 346.766 366.647 353.924 367.841 360.122 370.213 C 366.411 372.587 372.031 376.152 376.981 380.89 L 364.147 396.058 C 356.714 390.173 348.924 387.235 340.775 387.235 C 336.545 387.235 333.29 388.062 331.022 389.708 C 328.856 391.265 327.778 393.473 327.778 396.369 C 327.778 398.434 328.341 400.139 329.47 401.473 C 330.599 402.816 332.524 404.104 335.205 405.341 C 337.888 406.582 342.108 408.134 347.896 409.989 C 358.931 413.499 366.983 417.939 372.031 423.297 C 377.19 428.555 379.771 435.89 379.771 445.275 C 379.771 452.081 378.018 458.124 374.513 463.39 C 370.995 468.541 365.904 472.562 359.197 475.463 C 352.592 478.345 344.795 479.79 335.819 479.79 C 318.694 479.79 304.712 474.579 293.876 464.158 L 307.966 448.525 C 316.528 455.54 325.454 459.055 334.746 459.055 C 339.589 459.055 343.355 458.026 346.037 455.958 C 348.719 453.792 350.063 450.952 350.063 447.442 C 350.063 444.959 349.548 442.955 348.51 441.409 C 347.478 439.753 345.623 438.307 342.937 437.067 C 340.36 435.727 336.545 434.287 331.487 432.744 C 319.313 428.922 310.751 424.33 305.794 418.969 C 300.844 413.6 298.367 406.843 298.367 398.693 C 298.367 392.292 300.072 386.668 303.475 381.814 C 306.985 376.976 311.781 373.262 317.868 370.668 C 324.068 367.99 330.976 366.647 338.604 366.647 Z M 525.966 369.446 L 523.023 391.265 L 497.642 391.265 L 497.642 476.997 L 469.007 476.997 L 469.007 391.265 L 442.084 391.265 L 442.084 369.446 L 525.966 369.446 Z M 643.911 476.997 L 639.113 455.028 L 610.641 455.028 L 605.844 476.997 L 576.127 476.997 L 608.006 369.446 L 642.368 369.446 L 674.251 476.997 L 643.911 476.997 Z M 615.123 434.593 L 634.627 434.593 L 624.875 389.866 L 615.123 434.593 Z M 825.717 476.997 L 789.65 476.997 L 762.419 396.058 L 762.879 399.307 C 763.911 406.428 764.682 413.14 765.198 419.425 C 765.831 425.622 766.128 432.693 766.128 440.628 L 766.128 476.997 L 740.747 476.997 L 740.747 369.446 L 776.039 369.446 L 804.199 450.691 C 802.958 442.955 801.986 435.983 801.266 429.792 C 800.647 423.608 800.332 416.488 800.332 408.437 L 800.332 369.446 L 825.717 369.446 L 825.717 476.997 Z M 980.214 369.446 L 977.275 391.265 L 951.895 391.265 L 951.895 476.997 L 923.264 476.997 L 923.264 391.265 L 896.327 391.265 L 896.327 369.446 L 980.214 369.446 Z M 1213.994 369.446 L 1211.038 389.708 L 1174.362 389.708 L 1174.362 412.616 L 1206.403 412.616 L 1206.403 432.273 L 1174.362 432.273 L 1174.362 456.73 L 1213.52 456.73 L 1213.52 476.997 L 1145.731 476.997 L 1145.731 369.446 L 1213.994 369.446 Z M 1342.049 419.114 L 1372.535 476.997 L 1341.427 476.997 L 1324.707 438.153 L 1308.772 476.997 L 1278.436 476.997 L 1307.838 419.89 L 1280.602 369.446 L 1311.398 369.446 L 1325.018 402.096 L 1339.883 369.446 L 1370.056 369.446 L 1342.049 419.114 Z M 1483.842 366.647 C 1490.653 366.647 1496.787 367.688 1502.258 369.747 C 1507.735 371.816 1512.835 374.856 1517.581 378.872 L 1504.119 394.825 C 1500.911 392.45 1497.82 390.642 1494.826 389.4 C 1491.833 388.169 1488.634 387.541 1485.227 387.541 C 1478.427 387.541 1473.104 390.489 1469.288 396.369 C 1465.476 402.245 1463.561 411.118 1463.561 422.99 C 1463.561 434.855 1465.476 443.672 1469.288 449.451 C 1473.216 455.228 1478.626 458.124 1485.539 458.124 C 1489.257 458.124 1492.661 457.394 1495.756 455.958 C 1498.954 454.4 1502.414 452.187 1506.127 449.3 L 1518.817 465.394 C 1514.582 469.629 1509.479 473.078 1503.496 475.764 C 1497.61 478.438 1491.215 479.79 1484.297 479.79 C 1474.093 479.79 1465.164 477.628 1457.532 473.297 C 1449.997 468.857 1444.169 462.396 1440.044 453.94 C 1435.916 445.378 1433.853 435.058 1433.853 422.99 C 1433.853 411.229 1435.963 401.115 1440.183 392.659 C 1444.419 384.195 1450.308 377.738 1457.843 373.303 C 1465.369 368.864 1474.038 366.647 1483.842 366.647 Z M 1645.911 476.997 L 1645.911 432.273 L 1617.434 432.273 L 1617.434 476.997 L 1588.805 476.997 L 1588.805 369.446 L 1617.434 369.446 L 1617.434 410.146 L 1645.911 410.146 L 1645.911 369.446 L 1674.536 369.446 L 1674.536 476.997 L 1645.911 476.997 Z M 1808.752 476.997 L 1803.951 455.028 L 1775.468 455.028 L 1770.666 476.997 L 1740.953 476.997 L 1772.838 369.446 L 1807.19 369.446 L 1839.079 476.997 L 1808.752 476.997 Z M 1779.954 434.593 L 1799.454 434.593 L 1789.711 389.866 L 1779.954 434.593 Z M 1990.553 476.997 L 1954.5 476.997 L 1927.259 396.058 L 1927.72 399.307 C 1928.756 406.428 1929.527 413.14 1930.044 419.425 C 1930.658 425.622 1930.974 432.693 1930.974 440.628 L 1930.974 476.997 L 1905.584 476.997 L 1905.584 369.446 L 1940.88 369.446 L 1969.049 450.691 C 1967.799 442.955 1966.832 435.983 1966.107 429.792 C 1965.488 423.608 1965.177 416.488 1965.177 408.437 L 1965.177 369.446 L 1990.553 369.446 L 1990.553 476.997 Z M 2117.029 366.647 C 2131.379 366.647 2143.711 371.188 2154.026 380.267 L 2139.94 394.975 C 2136.017 392.19 2132.457 390.173 2129.258 388.936 C 2126.158 387.597 2122.597 386.924 2118.576 386.924 C 2110.841 386.924 2104.747 389.917 2100.313 395.904 C 2095.985 401.887 2093.814 411.016 2093.814 423.297 C 2093.814 432.273 2094.539 439.39 2095.985 444.662 C 2097.431 449.817 2099.592 453.53 2102.484 455.8 C 2105.478 458.072 2109.293 459.197 2113.937 459.197 C 2118.576 459.197 2122.815 458.226 2126.623 456.27 L 2126.623 434.133 L 2114.397 434.133 L 2111.612 414.475 L 2154.337 414.475 L 2154.337 468.029 C 2148.759 471.74 2142.465 474.63 2135.456 476.69 C 2128.431 478.754 2121.519 479.79 2114.709 479.79 C 2081.072 479.79 2064.255 460.903 2064.255 423.144 C 2064.255 411.379 2066.523 401.268 2071.064 392.804 C 2075.703 384.245 2082.003 377.738 2089.938 373.303 C 2097.895 368.864 2106.914 366.647 2117.029 366.647 Z M 2298.333 369.446 L 2295.386 389.708 L 2258.713 389.708 L 2258.713 412.616 L 2290.752 412.616 L 2290.752 432.273 L 2258.713 432.273 L 2258.713 456.73 L 2297.868 456.73 L 2297.868 476.997 L 2230.084 476.997 L 2230.084 369.446 L 2298.333 369.446 Z" fill="white" fill-opacity="0.64" style="opacity: 0.9;"/>
</svg>